<?xml version="1.0" encoding="UTF-8" standalone="no"?>
<svg
   clip-rule="evenodd"
   fill-rule="evenodd"
   stroke-linecap="round"
   stroke-linejoin="round"
   stroke-miterlimit="1.5"
   viewBox="0 0 48 48"
   version="1.1"
   id="svg8"
   sodipodi:docname="mail-mailbox.svg"
   inkscape:version="1.3.2 (091e20ef0f, 2023-11-25, custom)"
   xmlns:inkscape="http://www.inkscape.org/namespaces/inkscape"
   xmlns:sodipodi="http://sodipodi.sourceforge.net/DTD/sodipodi-0.dtd"
   xmlns="http://www.w3.org/2000/svg"
   xmlns:svg="http://www.w3.org/2000/svg">
  <defs
     id="defs8" />
  <sodipodi:namedview
     id="namedview8"
     pagecolor="#505050"
     bordercolor="#eeeeee"
     borderopacity="1"
     inkscape:showpageshadow="0"
     inkscape:pageopacity="0"
     inkscape:pagecheckerboard="0"
     inkscape:deskcolor="#505050"
     inkscape:zoom="5.1145833"
     inkscape:cx="1.5641548"
     inkscape:cy="31.185336"
     inkscape:window-width="1366"
     inkscape:window-height="682"
     inkscape:window-x="0"
     inkscape:window-y="0"
     inkscape:window-maximized="1"
     inkscape:current-layer="svg8" />
  <linearGradient
     id="a"
     x2="1"
     gradientTransform="matrix(0 -41.561 41.561 0 184.861 45.4308)"
     gradientUnits="userSpaceOnUse">
    <stop
       stop-color="#00927a"
       offset="0"
       id="stop1" />
    <stop
       stop-color="#00927a"
       offset="1"
       id="stop2" />
  </linearGradient>
  <linearGradient
     id="b"
     x2="1"
     gradientTransform="matrix(0 -25.3913 25.3913 0 524.25 45.1845)"
     gradientUnits="userSpaceOnUse">
    <stop
       stop-color="#6a58f0"
       offset="0"
       id="stop3" />
    <stop
       stop-color="#cf54d0"
       offset="1"
       id="stop4" />
  </linearGradient>
  <linearGradient
     id="c"
     x2="1"
     gradientTransform="matrix(0 12.8839 -12.8839 0 -1493.1 32.5468)"
     gradientUnits="userSpaceOnUse">
    <stop
       stop-color="#00dec2"
       offset="0"
       id="stop5" />
    <stop
       stop-color="#00927a"
       offset="1"
       id="stop6" />
  </linearGradient>
  <g
     id="g8">
    <path
       d="m45.14 34.093-42.289-.029v-14.106c0-.77.368-1.494.99-1.948 3.418-2.495 14.736-10.756 18.738-13.677.844-.616 1.99-.618 2.837-.004 4.002 2.901 15.303 11.093 18.727 13.576.626.453.997 1.179.997 1.952z"
       fill="url(#a)"
       id="path6"
       style="fill:#6a58f0ff;fill-opacity:1" />
    <path
       d="m25.104 31.79c-.682.412-1.536.413-2.218.001-4.353-2.63-20.035-12.102-20.035-12.102v23.111c0 1.453 1.178 2.631 2.631 2.631h37.121c.673 0 1.318-.267 1.794-.743.475-.476.743-1.121.743-1.794v-23.231s-15.683 9.492-20.036 12.127z"
       fill="url(#b)"
       id="path7" />
    <path
       d="m3.901 44.609c-.499-.899-.517-1.814.524-2.355 3.114-1.618 15.485-8.194 18.768-9.94.501-.267 1.103-.266 1.604.003 3.255 1.744 15.45 8.281 18.544 9.937 1.232.66 1.397 1.784.865 2.355"
       fill="none"
       stroke="url(#c)"
       stroke-width=".38"
       id="path8"
       style="stroke:#6a58f0ff;stroke-opacity:1" />
  </g>
</svg>
