<?xml version="1.0" encoding="UTF-8" standalone="no"?>
<svg
   clip-rule="evenodd"
   fill-rule="evenodd"
   stroke-linecap="round"
   stroke-linejoin="round"
   viewBox="0 0 48 48"
   version="1.1"
   id="svg20"
   sodipodi:docname="mail-outbox.svg"
   inkscape:version="1.3.2 (091e20ef0f, 2023-11-25, custom)"
   xmlns:inkscape="http://www.inkscape.org/namespaces/inkscape"
   xmlns:sodipodi="http://sodipodi.sourceforge.net/DTD/sodipodi-0.dtd"
   xmlns="http://www.w3.org/2000/svg"
   xmlns:svg="http://www.w3.org/2000/svg">
  <defs
     id="defs20" />
  <sodipodi:namedview
     id="namedview20"
     pagecolor="#505050"
     bordercolor="#eeeeee"
     borderopacity="1"
     inkscape:showpageshadow="0"
     inkscape:pageopacity="0"
     inkscape:pagecheckerboard="0"
     inkscape:deskcolor="#505050"
     inkscape:zoom="10.229167"
     inkscape:cx="23.95112"
     inkscape:cy="24"
     inkscape:window-width="1366"
     inkscape:window-height="682"
     inkscape:window-x="0"
     inkscape:window-y="0"
     inkscape:window-maximized="1"
     inkscape:current-layer="svg20" />
  <linearGradient
     id="a"
     x2="1"
     gradientTransform="matrix(0 -41.561 41.561 0 184.861 45.4308)"
     gradientUnits="userSpaceOnUse">
    <stop
       stop-color="#00927a"
       offset="0"
       id="stop1" />
    <stop
       stop-color="#00927a"
       offset="1"
       id="stop2" />
  </linearGradient>
  <linearGradient
     id="b"
     x2="1"
     gradientTransform="matrix(0 -25.3913 25.3913 0 524.25 45.1845)"
     gradientUnits="userSpaceOnUse">
    <stop
       stop-color="#6a58f0"
       offset="0"
       id="stop3" />
    <stop
       stop-color="#cf54d0"
       offset="1"
       id="stop4" />
  </linearGradient>
  <radialGradient
     id="c"
     cx="0"
     cy="0"
     r="1"
     gradientTransform="matrix(0 -31.2636 -27.0664 0 23.9901 29.7001)"
     gradientUnits="userSpaceOnUse">
    <stop
       stop-color="#f8d07e"
       offset="0"
       id="stop5" />
    <stop
       stop-color="#e3874f"
       offset=".26"
       id="stop6" />
    <stop
       stop-color="#cd2400"
       offset=".66"
       id="stop7" />
    <stop
       stop-color="#ff2500"
       offset="1"
       id="stop8" />
  </radialGradient>
  <linearGradient
     id="d"
     x2="1"
     gradientTransform="matrix(0 20.1703 -20.1703 0 -1204.85 9.37271)"
     gradientUnits="userSpaceOnUse">
    <stop
       stop-color="#702810"
       offset="0"
       id="stop9" />
    <stop
       stop-color="#a74518"
       offset="1"
       id="stop10" />
  </linearGradient>
  <linearGradient
     id="e"
     x2="1"
     gradientTransform="matrix(0,-18.4354,18.4354,0,1133.77,27.4933)"
     gradientUnits="userSpaceOnUse">
    <stop
       stop-color="#fff"
       stop-opacity=".5"
       offset="0"
       id="stop11" />
    <stop
       stop-color="#fff"
       stop-opacity=".11"
       offset=".01"
       id="stop12" />
    <stop
       stop-color="#fff"
       stop-opacity=".5"
       offset=".47"
       id="stop13" />
    <stop
       stop-color="#fff"
       stop-opacity="0"
       offset="1"
       id="stop14" />
  </linearGradient>
  <linearGradient
     id="f"
     x2="1"
     gradientTransform="matrix(0,12.8839,-12.8839,0,-1493.1,32.5468)"
     gradientUnits="userSpaceOnUse">
    <stop
       stop-color="#00dec2"
       offset="0"
       id="stop15" />
    <stop
       stop-color="#00927a"
       offset="1"
       id="stop16" />
  </linearGradient>
  <path
     d="m45.14 34.093-42.289-.029v-14.106c0-.77.368-1.494.99-1.948 3.418-2.495 14.736-10.756 18.738-13.677.844-.616 1.99-.618 2.837-.004 4.002 2.901 15.303 11.093 18.727 13.576.626.453.997 1.179.997 1.952z"
     fill="url(#a)"
     id="path16"
     style="fill:#6a58f0ff;fill-opacity:1" />
  <path
     d="m25.104 31.79c-.682.412-1.536.413-2.218.001-4.353-2.63-20.035-12.102-20.035-12.102v23.111c0 1.453 1.178 2.631 2.631 2.631h37.121c.673 0 1.318-.267 1.794-.743.475-.476.743-1.121.743-1.794v-23.231s-15.683 9.492-20.036 12.127z"
     fill="url(#b)"
     id="path17" />
  <path
     d="m33.008 19.037-9.031-10.781-8.985 10.781h3.874v8.881h10.268v-8.881z"
     fill="url(#c)"
     fill-rule="nonzero"
     stroke="url(#d)"
     stroke-width=".27"
     id="path18" />
  <path
     d="M 32.423,18.759 23.992,8.672 15.628,18.759 h 3.515 v 8.882 h 9.714 v -8.882 z"
     stroke="url(#e)"
     stroke-linecap="butt"
     stroke-linejoin="miter"
     stroke-width="0.27"
     id="path19"
     style="fill:none;stroke:url(#e)" />
  <path
     d="M 3.901,44.609 C 3.402,43.71 3.384,42.795 4.425,42.254 7.539,40.636 19.91,34.06 23.193,32.314 c 0.501,-0.267 1.103,-0.266 1.604,0.003 3.255,1.744 15.45,8.281 18.544,9.937 1.232,0.66 1.397,1.784 0.865,2.355"
     stroke="url(#f)"
     stroke-miterlimit="1.5"
     stroke-width="0.38"
     id="path20"
     style="fill:none;stroke:#6a58f0ff;stroke-opacity:1" />
</svg>
