<?xml version="1.0" encoding="UTF-8" standalone="no"?>
<svg
   width="64"
   height="64"
   version="1.1"
   viewBox="0 0 16.933 16.933"
   id="svg8"
   sodipodi:docname="xfce4-whiskermenu.svg"
   inkscape:version="1.1.2 (0a00cf5339, 2022-02-04)"
   xmlns:inkscape="http://www.inkscape.org/namespaces/inkscape"
   xmlns:sodipodi="http://sodipodi.sourceforge.net/DTD/sodipodi-0.dtd"
   xmlns:xlink="http://www.w3.org/1999/xlink"
   xmlns="http://www.w3.org/2000/svg"
   xmlns:svg="http://www.w3.org/2000/svg"
   xmlns:rdf="http://www.w3.org/1999/02/22-rdf-syntax-ns#"
   xmlns:cc="http://creativecommons.org/ns#"
   xmlns:dc="http://purl.org/dc/elements/1.1/">
  <metadata
     id="metadata7">
    <rdf:RDF>
      <cc:Work
         rdf:about="">
        <dc:format>image/svg+xml</dc:format>
        <dc:type
           rdf:resource="http://purl.org/dc/dcmitype/StillImage" />
        <dc:title />
      </cc:Work>
    </rdf:RDF>
  </metadata>
  <defs
     id="defs12">
    <linearGradient
       inkscape:collect="always"
       id="linearGradient876">
      <stop
         style="stop-color:#ff9955;stop-opacity:1"
         offset="0"
         id="stop872" />
      <stop
         style="stop-color:#ff6600;stop-opacity:1"
         offset="1"
         id="stop874" />
    </linearGradient>
    <linearGradient
       inkscape:collect="always"
       xlink:href="#linearGradient876"
       id="linearGradient878"
       x1="1.1000614"
       y1="16.128477"
       x2="16.160633"
       y2="0.91056633"
       gradientUnits="userSpaceOnUse" />
  </defs>
  <sodipodi:namedview
     id="namedview10"
     pagecolor="#ffffff"
     bordercolor="#666666"
     borderopacity="1.0"
     inkscape:pageshadow="2"
     inkscape:pageopacity="0.0"
     inkscape:pagecheckerboard="0"
     showgrid="false"
     inkscape:zoom="4.0703125"
     inkscape:cx="28.130518"
     inkscape:cy="32.06142"
     inkscape:window-width="1366"
     inkscape:window-height="699"
     inkscape:window-x="0"
     inkscape:window-y="0"
     inkscape:window-maximized="1"
     inkscape:current-layer="svg8" />
  <g
     transform="translate(0 -280.07)"
     id="g6" />
  <path
     inkscape:connector-curvature="0"
     id="path1990-2-54"
     style="fill:url(#linearGradient878);stroke:none;stroke-width:0.20209345px;stroke-linecap:butt;stroke-linejoin:miter;stroke-opacity:1;fill-opacity:1"
     d="M 16.160629,0.91056836 C 12.538383,0.5727589 7.9652137,3.538057 5.4476467,7.066386 L 2.7281238,7.8282014 0.84531135,10.11562 a 0.17399784,0.17483007 0 0 0 0.085482,0.279491 l 2.65938415,0.777481 c -0.060533,0.504459 0.044935,0.922248 0.3583497,1.462371 l -0.8497985,1.063693 a 0.13162255,0.1322521 0 0 0 0.012251,0.179053 l 0.7918971,0.749779 a 0.22360472,0.22467425 0 0 0 0.319366,-0.01317 l 0.9038185,-1.005506 c 0.4473392,0.179865 0.9701064,0.230711 1.6530999,0.07473 l 0.9453023,2.550121 a 0.23540392,0.23652988 0 0 0 0.3831342,0.08896 L 10.189206,14.329542 10.75249,11.482865 C 13.988165,8.7727356 16.58904,4.3053136 16.160633,0.91056632 Z" />
</svg>
